<?xml version="1.0" encoding="utf-8"?>
<!-- Generator: Adobe Illustrator 16.0.0, SVG Export Plug-In . SVG Version: 6.00 Build 0)  -->
<!DOCTYPE svg PUBLIC "-//W3C//DTD SVG 1.1//EN" "http://www.w3.org/Graphics/SVG/1.1/DTD/svg11.dtd">
<svg version="1.1"
	 id="svg39755" xmlns:dc="http://purl.org/dc/elements/1.1/" xmlns:cc="http://creativecommons.org/ns#" xmlns:rdf="http://www.w3.org/1999/02/22-rdf-syntax-ns#" xmlns:svg="http://www.w3.org/2000/svg" xmlns:sodipodi="http://sodipodi.sourceforge.net/DTD/sodipodi-0.dtd" sodipodi:docname="Karte A Stmk LI (2013).svg"
	 xmlns="http://www.w3.org/2000/svg" xmlns:xlink="http://www.w3.org/1999/xlink" x="0px" y="0px" width="1050px" height="730px"
	 viewBox="0 0 1050 730" enable-background="new 0 0 1050 730" xml:space="preserve">
<g id="layer1" transform="translate(0,-322.36218)">
	
		<path id="path7044" fill="#F4D4AC" stroke="#505050" stroke-width="4" stroke-linecap="round" stroke-linejoin="round" stroke-miterlimit="10" d="
		M730.692,736.089l14.764,1.969L774,737.074l3.938,4.923L774,748.89l7.873-1.969l-1.969,4.922l2.949,0.983l-7.87,5.905l-1.969,8.858
		l-2.953,11.814l2.953,7.874l-7.874,4.921l1.969,5.91l-10.827,4.921l-1.969-4.921l-5.905,2.952l-0.983-2.952l-14.766,3.938
		l-9.839-3.938l-5.905-15.752h3.938l3.938-13.784l-5.905-2.952l-0.984-10.827l-4.921-0.984l4.921-4.921l-1.968-4.921l11.811,2.952
		L730.692,736.089"/>

		<path id="path7048" class="bruck-mürzzuschlag" fill="#F4D4AC" stroke="#505050" stroke-width="4" stroke-linecap="round" stroke-linejoin="round" stroke-miterlimit="10" d="
		M700.188,347.237l-17.719,3.938l-3.938,16.75l-26.562-2.97l-5.906,24.625l-22.656-2.969l-3.938,6.906l-14.75,3.938l18.688-1.969
		v4.906l-19.688,13.781l-3.938,13.78l2.97,12.812l-5.906,8.844l2.938,7.875l-0.969,8.875l-5.906,5.906l-38.375,5.906l-6.906-1
		l-0.969,5.905l7.875,15.75l6.875-3.938l4.938,9.844l-1.97,5.906l3.938,2.969L587,517.549l7.875,31.5l8.844,5.905l4.938,8.845
		l7.875,2.969l9.844-4.938l8.845,1.97l-2.938,7.905l5.906,2.938l3.938,11.812l7.875,1.97l-1.969,11.812l2.938,10.844l7.875,11.812
		h4.938l4.906-3.938l15.75,0.97l20.656,15.75l11.812-3.938l8.875,5.906l1.969-1.969l-2.969-8.845l11.812-9.844v-9.844l6.906-1.969
		l15.75,3.938l18.688-3.938l0.969-21.656l17.719-6.906V558.89l7.875-11.812l-3.938-3.938l15.75-6.906l3.938-3.938v-7.875
		l16.75-8.845l17.688-16.75l1.969-1.969l8.875-6.875l11.812-7.875l8.844,7.875l7.875-3.938l-0.969-9.845l5.905-16.75l-7.875-0.969
		l-6.905-10.844l-15.75-1.969l-13.781,5.905l-0.969-4.905l-6.906-2.97l-2.938-35.438l-8.844-1.969l-6.906,7.875l-2.938-5.906
		l-13.781-2.938l-8.875-18.719l-31.469,3.938l-7.875-3.938l2.938-4.906l-3.938-2.969l-21.656-2.938l-4.906-9.845l-9.844,3.938
		l-2.969-15.75L711,347.237l-4.906,1L700.188,347.237z"/>
	
		<polygon class="leibnitz" fill="#F4D4AC" stroke="#505050" stroke-width="4" stroke-linecap="round" stroke-linejoin="round" stroke-miterlimit="10" points="
		869.601,942.643 870.94,939.775 867.688,929.829 864.054,930.02 862.141,932.889 857.741,928.681 846.712,928.572 842.891,913.286 
		845.844,902.461 846.827,889.66 847.812,884.739 841.906,885.722 841.02,885.997 839.19,878.189 842.633,871.303 840.338,868.245 
		835.556,869.584 835.746,865.949 826.567,865.566 821.977,865.949 819.108,863.271 814.901,863.271 814.263,863.271 
		812.382,846.348 810.412,847.333 806.477,829.612 808.446,820.754 816.32,806.969 817.304,802.047 804.508,798.111 800.572,811.89 
		791.713,813.859 787.776,817.797 789.743,821.737 784.823,832.564 779.906,853.238 770.063,863.082 768.094,860.129 
		765.142,858.159 753.329,863.082 750.377,869.97 741.519,869.97 741.519,874.896 743.488,873.913 743.488,877.848 740.534,878.834 
		746.441,895.565 745.455,895.565 736.598,909.349 739.551,910.335 733.645,920.176 725.775,924.117 715.932,930.023 
		715.932,935.928 713.963,938.881 712.979,939.866 718.885,943.802 720.854,949.713 710.027,956.602 712.979,961.523 
		712.979,962.507 710.027,965.462 712.979,975.307 708.058,980.228 702.153,994.008 706.089,1001.886 703.137,1006.807 
		731.676,1005.823 746.441,1003.855 751.362,1010.745 757.268,1010.745 767.111,1027.481 773.016,1022.556 778.921,1025.513 
		786.791,1019.603 796.634,1010.745 794.664,994.008 803.524,988.102 811.398,985.15 814.351,982.197 820.256,987.12 
		827.147,987.12 830.099,981.214 836,981.214 834.031,973.336 834.031,956.602 838.706,945.38 843.398,951.632 843.781,957.754 
		858.698,961.196 858.89,955.459 852.004,949.913 858.89,946.851 865.966,951.632 868.835,948.19 865.2,943.6 867.688,941.304 	"/>
	
		<path id="path7052" class="deutschlandsberg" fill="#F4D4AC" stroke="#505050" stroke-width="4" stroke-linecap="round" stroke-linejoin="round" stroke-miterlimit="10" d="
		M713.963,836.503l-3.938,9.847l4.922,6.89l2.952-1.969l6.891,8.858l1.97,4.921l1.968-0.983l2.949,11.815l8.857,2.952l5.905,16.731
		h-0.984l-8.857,13.784l2.953,0.984l-5.906,9.843l-7.869,3.941l-9.843,5.904v5.905l-1.969,2.953l-0.984,0.983l5.905,3.938
		l1.969,5.909l-10.827,6.891l2.953,4.921v0.984l-2.953,2.953l2.953,9.847l-4.921,4.922l-5.906,13.779l3.938,7.878l-2.953,4.921
		l-28.539,7.875l-11.812-2.953l-8.857-5.905l-13.78-1.969l-6.89,5.905l-6.887-5.905l-10.826,8.858l-6.891-3.938l-5.906-9.843
		l-5.904,2.953l-4.922-2.953l6.891-28.552l-1.969-3.938l2.953-2.953l-4.923-6.89l-0.983-13.784l-12.791-5.904l-7.874-1.97
		l3.938-13.784l2.952-9.842l6.886-2.953l1.97-6.89l-3.938-6.896l-0.983-12.795l2.952-0.983l3.938-13.784v-2.952l18.701-3.938
		l12.795-6.891h1.969l1.969-4.922l3.938-13.783l15.744,5.905l16.732-5.905l1.969-1.969h8.858l2.952-2.953l16.729,10.827
		l7.874-13.779L713.963,836.503"/>
	
		<polygon class="südoststeiermark" fill="#F4D4AC" stroke="#505050" stroke-width="4" stroke-linecap="round" stroke-linejoin="round" stroke-miterlimit="10" points="
		1000.375,811.893 995.438,813.862 991.5,811.893 988.563,801.049 983.625,804.018 971.813,798.112 970.844,799.082 
		961.969,800.082 961.969,793.174 954.094,789.237 956.063,784.332 951.156,774.487 946.219,771.518 938.344,771.518 
		937.375,776.457 930.5,779.393 918.688,784.332 915.719,782.362 911.781,789.237 905.875,789.237 903.906,793.174 896.031,788.268 
		895.063,781.362 887.188,781.362 884.219,779.393 872.406,797.112 865.531,798.112 857.656,793.174 859.625,804.987 852.306,805.6 
		852.425,812.255 841.476,814.139 840.843,818.056 833.879,818.884 828.397,816.476 825.972,809.835 816.313,806.957 
		808.438,820.737 806.469,829.612 810.406,847.332 812.375,846.362 814.257,863.271 814.901,863.271 819.108,863.271 
		821.977,865.949 826.567,865.566 835.746,865.949 835.556,869.584 840.338,868.245 842.633,871.303 839.19,878.189 
		841.023,886.009 841.906,885.737 847.813,884.737 846.813,889.674 845.844,902.457 842.906,913.299 846.695,928.572 
		857.741,928.681 862.141,932.889 864.054,930.02 867.688,929.829 870.94,939.775 869.601,942.643 867.688,941.304 865.2,943.6 
		868.835,948.19 865.966,951.632 858.89,946.851 852.004,949.913 858.89,955.459 858.698,961.196 843.781,957.754 843.398,951.632 
		838.72,945.395 834.031,956.612 834.031,973.332 873.406,976.299 886.188,971.362 903.906,961.518 921.625,962.518 
		935.406,967.424 949.188,978.268 962.969,980.237 970.844,985.143 973.781,991.049 984.625,995.987 985.594,979.237 
		980.688,965.457 970.844,962.518 965.906,954.643 962.969,942.832 963.938,913.299 966.906,911.332 961.969,900.487 
		965.906,895.549 967.875,889.674 969.844,871.957 974.781,866.018 978.719,863.082 979.688,857.174 985.594,853.237 991.5,839.457 
		1001.344,839.457 1001.344,827.643 1005.281,821.737 	"/>
	
		<path id="path7060" class="hartberg-fürstenfeld" fill="#F4D4AC" stroke="#505050" stroke-width="4" stroke-linecap="round" stroke-linejoin="round" stroke-miterlimit="10" d="
		M920.656,506.706l-6.905,12.812l-8.845,1.969l-8.875,4.906l-13.78-1.969l-3.938-1.97l-4.906,4.938l-7.875-6.906l-21.655,19.719
		l6.875,7.875l7.875,0.97l1.969,19.688l8.875,8.875v6.875l10.812,11.812l-17.719,12.812h-3.938l2.97,4.906l-5.906,13.781
		l0.969,3.938l-0.969,1l9.844,10.812v1.969l0.97,14.781l6.905,9.844l-5.905,0.969l3.938,2.97l-4.938,5.905l2.969,1.97l2.938,2.938
		l3.938,4.938l8.875,4.905l2.312,3.455l4.5,7.396l5.564-4.338l1.455,3.614l6.825,2.686l1,6.875l11.812,16.75l5.906,15.75
		l-2.969,6.875l-15.75-19.688l4.938,17.72l-9.844,7.875l4.906,8.875h7.875l1.969,13.78l2.969,1.97l11.812-4.938l6.875-2.938
		l0.969-4.938h7.875l4.938,2.969l4.906,9.845l-1.969,4.905l7.875,3.938v6.906l8.875-1l0.969-0.97l11.812,5.906l4.938-2.969
		l2.938,10.844l3.938,1.969l4.938-1.969l4.905,9.844l7.875-17.719l9.845,2.938l-3.938-4.906l-5.906-6.906l-5.905-8.844v-1.969
		l1.969-7.875l-8.844-8.875l-3.938-5.906l-1.969-8.844l2.938-13.781h2.97l4.905-11.812l-2.938-18.719l-2.97-9.844l-4.905-7.875
		l0.969-0.969l-3.938-17.72v-1l-3.938-20.655l-0.969-1.97l-6.906-19.688v-2.97l-9.844-22.625l-7.875-5.905l5.906-2.97h1l-1-3.938
		l10.844-2.938l0.969-1l7.875-13.78l4.938,1l-4.938,5.905l3.938,3.938l4.938-2.969l-2.969-10.812h5.905l9.845-1.969l8.875-2.969
		l2.938-1l-11.812-8.845l-3.938-7.875l1.97-4.905l-8.845-6.906l1.97-20.656l-3.938,2.938l-1.969-9.845h-3.938l-3.938,9.845
		l-2.969,4.905l-4.906-1.969v8.875l-3.938,0.969l-12.812-15.719l-7.875-1h-16.719l-13.781-5.906L920.656,506.706z"/>
	
		<path class="graz-umgebung" fill-rule="evenodd" clip-rule="evenodd" fill="#F4D4AC" stroke="#505050" stroke-width="4" stroke-linecap="round" stroke-linejoin="round" stroke-miterlimit="10" d="
		M859.622,805.002l-7.304,0.612l0.105,6.643l-10.966,1.897l-0.633,3.9l-6.958,0.844l-5.481-2.425l-2.425-6.643l-9.644-2.861
		l0.983-4.922l-12.795-3.938l-3.938,13.779l-8.858,1.969l-3.937,3.938l1.969,3.939l-4.922,10.827l-4.917,20.674l-9.843,9.844
		l-1.969-2.953l-2.953-1.97l-11.812,4.923l-2.953,6.89h-8.857v4.926l1.968-0.983v3.937l-2.952,0.984l-8.857-2.953l-2.949-11.815
		l-1.968,0.984l-1.97-4.921l-6.89-8.858l-2.953,1.968l-4.922-6.89l3.938-9.847l-12.797-9.842l-6.89-4.923l4.922-6.894l-4.922-10.827
		l-5.905,2.952l-6.89-4.921l-2.949-4.922l1.969-4.925l-0.983-5.905l-2.953,4.921l0.984-7.874l-0.984-9.843l-11.812-9.848
		l-1.968,0.984l-11.812-17.717l-6.891-7.878l2.952-11.812l-1.968-5.904l2.952-3.941l-8.858-18.701l-5.904,0.984l-4.918-4.921
		l-7.873,1.968l-23.623-1.968l-0.984-8.862l5.906-7.875l5.904-0.983l5.905-10.832l18.701-10.825l4.917-1.97l10.827-8.857l2.953-12.8
		l12.796-8.858l4.921-3.938l15.744,0.983l20.67,15.749l11.811-3.938l8.859,5.905l1.969-1.969l-1.171-3.513l1.178,3.509l-0.823,0.824
		l3.573,3.363l3.75,16.75l7,2.25l2.25,4.25l6.75-1.5l2.506,2.906l-9.269,7.586l2.952,12.796l9.843,12.8v-5.909l15.748,10.831
		l4.922-5.906h7.87l8.858,1.969l5.905,6.891l1.969-3.938l0.983,0.984l-1.969,11.811l16.733,13.784l12.795,9.843l-0.984,9.848
		l-9.843-4.926l-0.582,1.442l7.369,5.064l-4.818,7.275v0.984l2.953,12.8l3.937-1.973l2.949,5.908h7.874l3.938,5.906l-0.983,9.843
		l15.748,2.952L859.622,805.002z M730.692,736.089l14.764,1.969L774,737.074l3.938,4.923L774,748.89l7.873-1.969l-1.968,4.922
		l2.948,0.982l-7.87,5.906l-1.969,8.858l-2.952,11.814l2.952,7.874l-7.874,4.921l1.969,5.91l-10.827,4.921l-1.969-4.921
		l-5.905,2.952l-0.983-2.952l-14.765,3.938l-9.839-3.938l-5.905-15.753h3.938l3.938-13.783l-5.904-2.953l-0.984-10.826l-4.922-0.984
		l4.922-4.921l-1.969-4.922l11.812,2.953L730.692,736.089"/>
	
		<path id="path7068" class="graz" fill="#F4D4AC" stroke="#505050" stroke-width="4" stroke-linecap="round" stroke-linejoin="round" stroke-miterlimit="10" d="
		M730.692,736.089l-2.948,10.831l-11.812-2.953l1.969,4.922l-4.922,4.921l4.922,0.984l0.984,10.827l5.904,2.952l-3.938,13.783
		h-3.938l5.905,15.753l9.839,3.938l14.765-3.938l0.983,2.952l5.905-2.952l1.969,4.921l10.827-4.921l-1.969-5.91l7.874-4.921
		l-2.952-7.874l2.952-11.814l1.969-8.858l7.87-5.905l-2.948-0.983l1.969-4.922l-7.874,1.969l3.938-6.894l-3.938-4.922l-28.545,0.983
		L730.692,736.089"/>
	
		<path id="path7076" class="murtal" fill="#F4D4AC" stroke="#505050" stroke-width="4" stroke-linecap="round" stroke-linejoin="round" stroke-miterlimit="10" d="
		M374.406,554.956l-1.969,4.906l-26.562,2.969v8.875l-8.845,10.812l-14.78,6.906l-12.781,5.905l-6.906,7.875l-16.719,4.906
		l-2.969,2.969l-2.938,6.875l0.969,15.751l10.845,2.969l6.875,14.75l10.844,2.969l10.812,12.781l10.845-1.969l4.905,2.969
		l6.906,23.625L339,700.643l5.875,12.812l5.905,6.875l4.938-3.938l1.969,5.906l8.844,3.938l12.812-2.938l12.781,5.906l-0.97,7.875
		l13.781,16.719l-2.969,2.969l3.938,17.719l3.938,2.938v1.969l3.938,4.938l7.875,18.688l-0.969,6.906l2.938,5.906l7.875,1.969
		l4.906-8.875l37.406-3.938l1.969-2.938l15.75-7.875h12.812l8.844-5.906h5.906l6.875,1.969l-4.906-5.905l5.906-1l6.875-15.75
		l11.812,6.905l2.97-6.905l-1-2.938l-0.97-12.812l9.845-10.812v-12.812l13.78-11.812l4.906-8.844l10.844-2.969l10.812-9.845
		l-1-8.844l-4.906-4.938l-5.906-3.938l-7.875-14.75l-7.875-5.906l-4.905,1.97l-9.845-11.812v6.875l-3.938,2.969l-7.875-4.938
		l-19.688-33.47l-1.969,2.97l-18.688-4.938l-7.875-6.875l-10.845,6.875l-1.969,6.906l-9.844,2.938l-17.72-12.78l-11.812-7.875
		l-14.75-1l-3.938-8.845v-17.719H411.81l-7.875-15.781l-15.75-3.938l-5.906,3.938L374.406,554.956z"/>
	
		<path id="path7100" class="murau" fill="#F4D4AC" stroke="#505050" stroke-width="4" stroke-linecap="round" stroke-linejoin="round" stroke-miterlimit="10" d="
		M291.744,636.664l6.89,14.768l10.827,2.953l10.827,12.8l10.826-1.973l4.917,2.957l6.891,23.622l-3.938,8.861l5.905,12.795
		l5.905,6.896l4.922-3.941l1.969,5.91l8.858,3.938l12.795-2.952l12.792,5.904l-0.984,7.874l13.779,16.736l-2.953,2.953l3.938,17.721
		l3.938,2.953v1.969l3.938,4.922l7.874,18.705l-0.983,6.89L394.1,811.89l-4.921-8.858l-10.823,3.938l-1.968,6.89l-4.922-2.953
		l-1.969,9.848l-8.858-2.957l-16.731,11.814l-3.938-7.874l1.968-10.831l-6.89-5.904l-12.791-2.953l-25.592,1.969l-5.905-4.922
		l-3.938,3.938l-0.983,1.97l-12.791-28.548l-15.748,13.779l-10.827-5.905l-3.937,10.831l-7.875,2.952l-19.682,19.686h-13.779
		l0.983,8.862l-5.905,8.858l-12.792,4.921l-6.89,2.953l-0.984,9.847l-4.921-1.969l-13.779,5.905l-6.891,8.857l-8.857,0.984
		l-3.938,3.938l-12.791-4.923l-11.812-13.778l6.89-3.938l9.843-6.894l5.902-13.779l7.874-4.922v-13.783l14.764-25.596l-8.857-19.689
		l0.983-4.921l21.654-14.764l6.89,6.89l11.808-1.969l1.969-8.862l-19.681-13.779l-9.844-2.952l-2.953-6.896l-4.921-0.983
		l2.952-4.922l-14.764-13.779l-5.906-4.925l6.892-6.891l-1.97-5.906l17.717-4.921l7.874,6.891l9.844-5.905l-0.984-3.938l5.905-2.952
		l16.729,4.922l1.97-6.896h3.938l6.89-8.856l5.905,8.856l13.78,5.91l5.9-2.952l9.844-16.737l7.874-0.983l3.938-5.905l10.827,0.984
		l10.826-12.801L291.744,636.664"/>
	
		<path id="path7108" class="voitsberg" fill="#F4D4AC" stroke="#505050" stroke-width="4" stroke-linecap="round" stroke-linejoin="round" stroke-miterlimit="10" d="
		M628.34,694.748l4.918,4.921l5.904-0.984l8.858,18.701l-2.953,3.94l1.969,5.905l-2.952,11.812l6.891,7.878l11.811,17.717
		l1.97-0.984l11.812,9.848l0.984,9.843l-0.984,7.874l2.953-4.921l0.983,5.904l-1.969,4.927l2.948,4.921l6.89,4.922l5.905-2.953
		l4.922,10.827l-4.922,6.894l6.892,4.923l-7.874,13.778l-16.729-10.827l-2.953,2.953h-8.857l-1.97,1.97l-16.731,5.904l-15.744-5.904
		l-3.938,13.782l-1.969,4.922h-1.968l-12.796,6.891l-18.701,3.938L577.161,849.3l-9.843-24.61l-7.874-5.91l-15.748-3.937
		l-8.857-5.905l-14.762-11.812l-0.983-8.862l6.89,1.969l-4.921-5.906l5.905-0.983l6.887-15.752l11.812,6.894l2.952-6.894
		l-0.983-2.953l-0.984-12.795l9.843-10.831v-12.796l13.78-11.815l4.921-8.857l10.823-2.952l10.826-9.843l23.623,1.969
		L628.34,694.748"/>
	
		<polygon class="leoben" fill="#F4D4AC" stroke="#505050" stroke-width="4" stroke-linecap="round" stroke-linejoin="round" stroke-miterlimit="10" points="
		658.849,622.882 650.974,611.067 648.022,600.241 649.99,588.425 642.115,586.457 638.179,574.645 632.278,571.693 
		635.226,563.814 626.37,561.846 616.529,566.771 608.655,563.814 603.734,554.956 594.875,549.05 587,517.55 568.303,513.613 
		564.365,510.656 566.335,504.751 561.413,494.908 554.524,498.844 546.65,483.092 547.634,477.187 554.524,478.172 
		557.477,471.281 539.76,470.297 533.854,477.187 513.189,482.108 506.406,487.653 508.399,490.443 502.821,496.819 
		501.027,507.578 483.492,488.849 468.901,504.75 468.9,504.75 468.901,504.751 452.168,521.487 446.262,537.235 434.45,540.192 
		435.436,563.814 423.628,577.598 423.628,595.319 427.566,604.177 442.324,605.162 454.137,613.036 471.854,625.836 
		481.697,622.882 483.659,615.993 494.488,609.099 502.362,615.993 521.063,620.915 523.031,617.962 542.713,651.43 
		550.587,656.352 554.524,653.399 554.524,646.509 564.365,658.321 569.287,656.352 577.161,662.257 585.031,677.026 
		590.938,680.964 595.86,685.884 601.765,678.01 607.67,677.026 613.574,666.195 632.277,655.368 637.195,653.399 648.022,644.542 
		650.974,631.742 663.77,622.882 	"/>
	
		<polygon class="liezen" fill="#F4D4AC" stroke="#505050" stroke-width="4" stroke-linecap="round" stroke-linejoin="round" stroke-miterlimit="10" points="
		604.717,397.449 591.922,397.449 584.048,391.544 569.286,398.433 560.429,396.464 543.697,414.185 533.854,416.154 
		524.016,413.202 517.125,399.418 510.236,403.354 507.282,397.449 502.362,397.449 482.676,408.276 470.867,395.48 
		455.119,386.622 446.262,399.418 438.388,402.37 437.404,409.26 426.579,407.292 411.817,414.185 400.99,413.201 391.147,420.091 
		392.132,426.981 387.21,434.855 377.371,434.855 361.623,450.607 351.781,449.623 342.922,451.591 340.953,461.434 
		319.304,471.281 316.351,477.187 289.776,475.218 276.984,458.481 280.921,453.56 275.016,454.545 270.094,452.576 
		260.251,461.434 247.456,461.434 227.775,471.281 212.027,473.25 211.042,462.422 213.011,444.702 195.294,425.997 
		185.451,427.965 173.644,421.076 161.832,424.028 151.99,417.138 139.195,412.217 135.257,419.107 131.324,417.138 
		113.608,420.091 107.702,417.138 96.875,434.855 90.969,435.839 92.938,441.749 81.13,446.671 81.13,451.591 76.209,470.297 
		78.178,483.092 76.209,494.908 91.953,496.876 99.827,510.656 100.812,514.597 95.891,516.566 101.796,528.377 97.86,539.208 
		86.048,554.956 89,560.861 66.366,560.861 42.743,553.971 35.859,554.956 37.823,562.83 27,586.457 27.984,587.441 29.952,600.24 
		42.743,635.678 40.776,655.368 44.712,661.273 56.524,666.194 70.304,666.194 78.178,674.073 84.083,675.057 89,664.226 
		97.86,664.226 102.781,671.12 111.639,666.194 113.608,658.32 127.387,655.368 126.403,670.135 142.147,678.995 159.864,674.073 
		167.739,680.964 177.58,675.057 176.597,671.12 182.502,668.169 199.231,673.089 201.199,666.194 205.137,666.194 212.027,657.337 
		217.932,666.194 231.712,672.104 237.614,669.151 247.455,652.416 255.33,651.43 259.267,645.525 270.094,646.509 280.921,633.711 
		279.937,617.962 282.89,611.067 285.838,608.115 302.571,603.193 309.461,595.319 322.256,589.41 337.016,582.519 345.874,571.693 
		345.874,562.83 372.45,559.878 374.418,554.956 382.293,561.845 388.195,557.909 403.943,561.845 411.817,577.598 423.628,577.598 
		435.435,563.814 434.449,540.192 446.262,537.235 452.166,521.487 468.901,504.75 483.492,488.849 501.027,507.578 
		502.821,496.819 508.399,490.443 506.406,487.653 513.189,482.108 533.854,477.187 539.759,470.297 557.476,471.281 
		554.524,478.172 592.906,472.265 598.812,466.36 599.796,457.497 596.843,449.623 602.748,440.764 599.796,427.965 
		603.733,414.185 623.418,400.402 623.418,395.48 	"/>
	
		<polygon class="weiz" fill="#F4D4AC" stroke="#505050" stroke-width="4" stroke-linecap="round" stroke-linejoin="round" stroke-miterlimit="10" points="
		924.58,746.922 918.676,731.17 906.865,714.431 905.88,707.543 899.039,704.858 897.601,701.258 892.022,705.579 887.522,698.198 
		885.211,694.748 876.356,689.821 872.419,684.9 869.466,681.947 866.514,679.978 871.435,674.073 867.496,671.12 873.404,670.135 
		866.514,660.29 865.53,645.525 865.53,643.556 855.687,632.725 856.671,631.741 855.687,627.804 861.592,614.02 858.639,609.098 
		862.575,609.098 880.288,596.303 869.466,584.488 869.466,577.598 860.608,568.74 858.639,549.05 850.765,548.066 843.875,540.192 
		865.53,520.503 873.404,527.392 878.323,522.471 882.258,524.44 896.036,526.409 904.896,521.487 913.754,519.518 920.645,506.718 
		916.706,499.829 916.706,490.97 909.818,484.077 894.069,486.046 886.195,489.986 877.34,482.109 865.53,489.986 856.671,496.876 
		854.701,498.844 836.986,515.581 820.257,524.439 820.257,532.313 816.321,536.251 800.572,543.144 804.509,547.082 
		796.635,558.892 796.635,576.614 778.922,583.505 777.938,605.162 759.237,609.098 743.488,605.162 736.598,607.13 
		736.598,607.142 736.594,607.143 736.594,616.987 724.781,626.831 727.75,635.674 726.926,636.499 730.5,639.862 734.25,656.612 
		741.25,658.862 743.5,663.112 750.25,661.612 752.755,664.518 743.488,672.104 746.441,684.899 756.282,697.699 756.282,691.791 
		772.031,702.62 776.952,696.714 784.823,696.714 793.682,698.683 799.587,705.573 801.556,701.636 802.539,702.62 800.572,714.431 
		817.304,728.215 830.1,738.058 829.115,747.905 819.273,742.979 818.691,744.422 826.059,749.487 821.24,756.763 821.24,757.749 
		824.195,770.547 828.131,768.574 831.078,774.484 838.953,774.484 842.891,780.389 841.906,790.232 857.656,793.185 865.53,798.11 
		872.419,797.127 884.227,779.406 887.179,781.375 895.053,781.375 896.036,788.264 903.91,793.185 905.88,789.249 911.785,789.249 
		915.723,782.358 913.754,768.574 905.88,768.574 900.959,759.715 910.802,751.841 905.88,734.122 921.629,753.81 	"/>
</g>
</svg>
